<?xml version="1.0" encoding="UTF-8" standalone="no"?>
<!-- Uploaded to: SVG Repo, www.svgrepo.com, Generator: SVG Repo Mixer Tools -->

<svg
   fill="#000000"
   height="180.00694"
   width="180"
   version="1.1"
   id="Capa_1"
   viewBox="0 0 16.94115 16.941803"
   xml:space="preserve"
   sodipodi:docname="email.svg"
   inkscape:version="1.2.2 (b0a8486541, 2022-12-01)"
   xmlns:inkscape="http://www.inkscape.org/namespaces/inkscape"
   xmlns:sodipodi="http://sodipodi.sourceforge.net/DTD/sodipodi-0.dtd"
   xmlns="http://www.w3.org/2000/svg"
   xmlns:svg="http://www.w3.org/2000/svg"><defs
   id="defs1341" /><sodipodi:namedview
   id="namedview1339"
   pagecolor="#ffffff"
   bordercolor="#666666"
   borderopacity="1.0"
   inkscape:showpageshadow="2"
   inkscape:pageopacity="0.0"
   inkscape:pagecheckerboard="0"
   inkscape:deskcolor="#d1d1d1"
   showgrid="false"
   inkscape:zoom="0.59"
   inkscape:cx="-111.86441"
   inkscape:cy="405.08475"
   inkscape:window-width="841"
   inkscape:window-height="1401"
   inkscape:window-x="3629"
   inkscape:window-y="4"
   inkscape:window-maximized="1"
   inkscape:current-layer="Capa_1" />

<path
   d="m 16.94115,8.471202 c 0,4.677012 -3.792433,8.470602 -8.470575,8.470602 C 3.792433,16.941804 0,13.148214 0,8.471202 0,3.792935 3.792433,0 8.470575,0 13.148717,0 16.94115,3.792935 16.94115,8.471202"
   style="fill:#010201;fill-opacity:1;fill-rule:evenodd;stroke:none;stroke-width:0.012549"
   id="path128" /><g
   id="g1336"
   transform="matrix(0.15900024,0,0,0.15900024,2.484693,2.48502)"
   style="fill:#ffffff">
	<path
   d="M 66.097,12.089 H 9.197 C 4.126,12.089 0,16.215 0,21.286 v 32.722 c 0,5.071 4.126,9.197 9.197,9.197 h 56.9 c 5.071,0 9.197,-4.126 9.197,-9.197 V 21.287 c 0.001,-5.072 -4.125,-9.198 -9.197,-9.198 z m -4.494,6 L 37.647,33.523 13.691,18.089 Z m 4.494,39.117 H 9.197 C 7.434,57.206 6,55.771 6,54.009 V 21.457 l 29.796,19.16 c 0.04,0.025 0.083,0.042 0.124,0.065 0.043,0.024 0.087,0.047 0.131,0.069 0.231,0.119 0.469,0.215 0.712,0.278 0.025,0.007 0.05,0.01 0.075,0.016 0.267,0.063 0.537,0.102 0.807,0.102 10e-4,0 0.002,0 0.002,0 0.002,0 0.003,0 0.004,0 0.27,0 0.54,-0.038 0.807,-0.102 0.025,-0.006 0.05,-0.009 0.075,-0.016 0.243,-0.063 0.48,-0.159 0.712,-0.278 0.044,-0.022 0.088,-0.045 0.131,-0.069 0.041,-0.023 0.084,-0.04 0.124,-0.065 l 29.796,-19.16 v 32.551 c -0.001,1.763 -1.436,3.198 -3.199,3.198 z"
   id="path1334"
   style="fill:#ffffff" />
</g></svg>
