<?xml version="1.0" encoding="UTF-8" standalone="no"?>
<!-- Created with Inkscape (http://www.inkscape.org/) -->

<svg
   version="1.1"
   id="svg2"
   width="180"
   height="180"
   viewBox="0 0 180 180"
   sodipodi:docname="v982-d4-01.eps"
   xmlns:inkscape="http://www.inkscape.org/namespaces/inkscape"
   xmlns:sodipodi="http://sodipodi.sourceforge.net/DTD/sodipodi-0.dtd"
   xmlns="http://www.w3.org/2000/svg"
   xmlns:svg="http://www.w3.org/2000/svg">
  <defs
     id="defs6" />
  <sodipodi:namedview
     id="namedview4"
     pagecolor="#ffffff"
     bordercolor="#666666"
     borderopacity="1.0"
     inkscape:showpageshadow="2"
     inkscape:pageopacity="0.0"
     inkscape:pagecheckerboard="0"
     inkscape:deskcolor="#d1d1d1"
     showgrid="false" />
  <g
     id="g10"
     inkscape:groupmode="layer"
     inkscape:label="Page 1"
     transform="matrix(1.3333333,0,0,-1.3333333,-709.99998,1322.7386)">
    <g
       id="g579">
      <path
         d="m 600,992.054 c 37.279,0 67.5,-30.22 67.5,-67.5 0,-37.279 -30.221,-67.5 -67.5,-67.5 -37.279,0 -67.5,30.221 -67.5,67.5 0,37.28 30.221,67.5 67.5,67.5"
         style="fill:#010201;fill-opacity:1;fill-rule:nonzero;stroke:none;stroke-width:0.1"
         id="path48" />
      <path
         d="m 600,967.054 c -11.543,0 -12.99,-0.049 -17.523,-0.256 -4.523,-0.206 -7.613,-0.924 -10.316,-1.975 -2.795,-1.086 -5.165,-2.539 -7.528,-4.902 -2.363,-2.363 -3.816,-4.733 -4.902,-7.528 -1.05,-2.703 -1.769,-5.792 -1.975,-10.316 -0.207,-4.534 -0.256,-5.98 -0.256,-17.523 0,-11.542 0.049,-12.99 0.256,-17.523 0.206,-4.523 0.925,-7.613 1.975,-10.316 1.086,-2.795 2.539,-5.165 4.902,-7.527 2.363,-2.363 4.733,-3.816 7.528,-4.903 2.703,-1.05 5.793,-1.769 10.316,-1.975 4.533,-0.207 5.98,-0.256 17.523,-0.256 11.542,0 12.989,0.049 17.522,0.256 4.524,0.206 7.614,0.925 10.317,1.975 2.795,1.087 5.165,2.54 7.528,4.903 2.362,2.362 3.816,4.732 4.902,7.527 1.05,2.703 1.769,5.793 1.975,10.316 0.207,4.533 0.256,5.981 0.256,17.523 0,11.542 -0.049,12.989 -0.256,17.523 -0.206,4.524 -0.925,7.613 -1.975,10.316 -1.086,2.795 -2.54,5.165 -4.902,7.528 -2.363,2.363 -4.733,3.816 -7.528,4.902 -2.703,1.051 -5.793,1.769 -10.317,1.975 -4.533,0.207 -5.98,0.256 -17.522,0.256 z m 0,-7.658 c 11.348,0 12.692,-0.043 17.174,-0.247 4.143,-0.19 6.393,-0.882 7.891,-1.464 1.984,-0.771 3.4,-1.692 4.887,-3.179 1.487,-1.487 2.408,-2.903 3.179,-4.886 0.582,-1.498 1.274,-3.748 1.464,-7.892 0.204,-4.482 0.247,-5.826 0.247,-17.174 0,-11.348 -0.043,-12.692 -0.247,-17.174 -0.19,-4.143 -0.882,-6.394 -1.464,-7.891 -0.771,-1.984 -1.692,-3.4 -3.179,-4.887 -1.487,-1.487 -2.903,-2.408 -4.887,-3.179 -1.498,-0.582 -3.748,-1.275 -7.891,-1.463 -4.482,-0.205 -5.825,-0.248 -17.174,-0.248 -11.349,0 -12.693,0.043 -17.174,0.248 -4.143,0.188 -6.394,0.881 -7.891,1.463 -1.984,0.771 -3.4,1.692 -4.887,3.179 -1.487,1.487 -2.408,2.903 -3.179,4.887 -0.582,1.497 -1.274,3.748 -1.464,7.891 -0.204,4.482 -0.247,5.826 -0.247,17.174 0,11.348 0.043,12.692 0.247,17.174 0.19,4.144 0.882,6.394 1.464,7.892 0.771,1.983 1.691,3.399 3.179,4.886 1.487,1.487 2.903,2.408 4.887,3.179 1.497,0.582 3.748,1.274 7.891,1.464 4.482,0.204 5.826,0.247 17.174,0.247"
         style="fill:#ffffff;fill-opacity:1;fill-rule:nonzero;stroke:none;stroke-width:0.1"
         id="path50" />
      <path
         d="m 600,910.387 c -7.824,0 -14.167,6.343 -14.167,14.167 0,7.824 6.343,14.167 14.167,14.167 7.824,0 14.167,-6.343 14.167,-14.167 0,-7.824 -6.343,-14.167 -14.167,-14.167 z m 0,35.991 c -12.053,0 -21.824,-9.771 -21.824,-21.824 0,-12.053 9.771,-21.824 21.824,-21.824 12.053,0 21.824,9.771 21.824,21.824 0,12.053 -9.771,21.824 -21.824,21.824"
         style="fill:#ffffff;fill-opacity:1;fill-rule:nonzero;stroke:none;stroke-width:0.1"
         id="path52" />
      <path
         d="m 627.786,947.241 c 0,-2.817 -2.283,-5.1 -5.099,-5.1 -2.817,0 -5.1,2.283 -5.1,5.1 0,2.817 2.283,5.1 5.1,5.1 2.816,0 5.099,-2.283 5.099,-5.1"
         style="fill:#ffffff;fill-opacity:1;fill-rule:nonzero;stroke:none;stroke-width:0.1"
         id="path54" />
    </g>
  </g>
</svg>
