<?xml version="1.0" encoding="UTF-8" standalone="no"?>
<!-- Created with Inkscape (http://www.inkscape.org/) -->

<svg
   version="1.1"
   id="svg2"
   width="180"
   height="180"
   viewBox="0 0 180 180"
   sodipodi:docname="v982-d4-01.eps"
   xmlns:inkscape="http://www.inkscape.org/namespaces/inkscape"
   xmlns:sodipodi="http://sodipodi.sourceforge.net/DTD/sodipodi-0.dtd"
   xmlns="http://www.w3.org/2000/svg"
   xmlns:svg="http://www.w3.org/2000/svg">
  <defs
     id="defs6" />
  <sodipodi:namedview
     id="namedview4"
     pagecolor="#ffffff"
     bordercolor="#666666"
     borderopacity="1.0"
     inkscape:showpageshadow="2"
     inkscape:pageopacity="0.0"
     inkscape:pagecheckerboard="0"
     inkscape:deskcolor="#d1d1d1"
     showgrid="false" />
  <g
     id="g10"
     inkscape:groupmode="layer"
     inkscape:label="Page 1"
     transform="matrix(1.3333333,0,0,-1.3333333,-411.11332,1060.048)">
    <path
       d="m 443.335,727.536 c 0,-37.279 -30.221,-67.5 -67.5,-67.5 -37.279,0 -67.5,30.221 -67.5,67.5 0,37.279 30.221,67.5 67.5,67.5 37.279,0 67.5,-30.221 67.5,-67.5"
       style="fill:#010201;fill-opacity:1;fill-rule:nonzero;stroke:none;stroke-width:0.1"
       id="path168" />
    <path
       d="m 413.658,749.843 c 10e-4,0.392 -0.011,0.407 -0.421,0.403 -0.989,-0.009 -1.967,0.109 -2.939,0.256 -3.532,0.533 -14.987,6.542 -16.925,16.372 -0.039,0.192 -0.471,2.631 -0.466,3.67 0.003,0.465 -0.006,0.466 -0.464,0.473 -0.106,0.002 -0.212,0 -0.318,0 -4.482,0 -8.965,0.003 -13.448,-0.001 -0.903,-10e-4 -0.776,0.112 -0.776,-0.794 -0.003,-19.44 -0.003,-38.881 10e-4,-58.322 0,-0.725 -0.021,-1.449 -0.148,-2.16 -0.676,-3.761 -2.603,-6.706 -5.864,-8.717 -2.825,-1.742 -5.892,-2.239 -9.148,-1.595 -1.026,0.203 -1.989,0.59 -2.953,0.972 -0.079,0.072 -0.157,0.143 -0.235,0.214 -0.324,0.272 -0.681,0.496 -1.029,0.737 -4.15,2.874 -6.118,6.863 -5.519,11.852 0.608,5.061 3.52,8.497 8.317,10.267 1.431,0.528 2.939,0.746 4.469,0.664 0.985,-0.052 1.966,-0.177 2.921,-0.449 0.33,-0.094 0.509,0.023 0.526,0.373 0.006,0.124 0.009,0.247 0.009,0.37 0.001,3.49 -0.13,11.113 -0.148,11.13 0.007,1.005 0.007,2.01 0.025,3.014 0.006,0.29 -0.138,0.34 -0.382,0.369 -1.808,0.215 -3.616,0.255 -5.435,0.122 -2.513,-0.184 -4.948,-0.699 -7.315,-1.551 -3.776,-1.358 -7.09,-3.457 -9.951,-6.26 -2.457,-2.407 -4.388,-5.19 -5.804,-8.327 -1.356,-3.002 -2.132,-6.154 -2.346,-9.434 -0.094,-1.423 -0.076,-2.851 0.056,-4.279 0.182,-1.973 0.556,-3.903 1.156,-5.788 1.725,-5.417 4.859,-9.861 9.307,-13.386 0.452,-0.359 0.886,-0.752 1.428,-0.985 v 0 c 0.227,-0.201 0.454,-0.403 0.681,-0.604 0.72,-0.543 1.491,-1.007 2.297,-1.405 4.982,-2.461 10.23,-3.461 15.762,-2.786 7.177,0.877 13.157,4.057 17.864,9.537 4.431,5.158 6.584,11.213 6.623,17.981 0.056,9.682 0.013,19.364 0.019,29.046 0,0.231 -0.133,0.559 0.122,0.675 0.199,0.091 0.399,-0.173 0.586,-0.296 3.604,-2.367 7.489,-4.078 11.697,-5.041 2.449,-0.56 4.923,-0.9 7.442,-0.896 0.795,10e-4 0.9,0.041 0.901,0.828 0.005,3.439 -0.176,12.838 -0.175,13.751"
       style="fill:#ffffff;fill-opacity:1;fill-rule:nonzero;stroke:none;stroke-width:0.1"
       id="path170" />
  </g>
</svg>
