<?xml version="1.0" encoding="UTF-8" standalone="no"?>
<!-- Created with Inkscape (http://www.inkscape.org/) -->

<svg
   version="1.1"
   id="svg2"
   width="180"
   height="180"
   viewBox="0 0 180 180"
   sodipodi:docname="v982-d4-01.eps"
   xmlns:inkscape="http://www.inkscape.org/namespaces/inkscape"
   xmlns:sodipodi="http://sodipodi.sourceforge.net/DTD/sodipodi-0.dtd"
   xmlns="http://www.w3.org/2000/svg"
   xmlns:svg="http://www.w3.org/2000/svg">
  <defs
     id="defs6" />
  <sodipodi:namedview
     id="namedview4"
     pagecolor="#ffffff"
     bordercolor="#666666"
     borderopacity="1.0"
     inkscape:showpageshadow="2"
     inkscape:pageopacity="0.0"
     inkscape:pagecheckerboard="0"
     inkscape:deskcolor="#d1d1d1"
     showgrid="false" />
  <g
     id="g10"
     inkscape:groupmode="layer"
     inkscape:label="Page 1"
     transform="matrix(1.3333333,0,0,-1.3333333,-1008.8866,1322.7386)">
    <path
       d="m 891.665,924.554 c 0,-37.279 -30.221,-67.5 -67.5,-67.5 -37.279,0 -67.5,30.221 -67.5,67.5 0,37.28 30.221,67.5 67.5,67.5 37.279,0 67.5,-30.22 67.5,-67.5"
       style="fill:#010201;fill-opacity:1;fill-rule:nonzero;stroke:none;stroke-width:0.1"
       id="path62" />
    <path
       d="m 845.867,916.98 c -1.07,0.535 -6.33,3.123 -7.311,3.48 -0.981,0.356 -1.694,0.535 -2.408,-0.536 -0.712,-1.07 -2.763,-3.48 -3.387,-4.194 -0.624,-0.713 -1.248,-0.803 -2.318,-0.267 -1.07,0.535 -4.517,1.664 -8.604,5.309 -3.181,2.835 -5.328,6.338 -5.952,7.409 -0.624,1.071 -0.067,1.65 0.469,2.183 0.481,0.479 1.07,1.249 1.605,1.874 0.535,0.624 0.713,1.071 1.069,1.784 0.358,0.714 0.179,1.339 -0.089,1.874 -0.267,0.536 -2.407,5.8 -3.298,7.942 -0.869,2.085 -1.75,1.803 -2.408,1.836 -0.623,0.031 -1.337,0.037 -2.05,0.037 -0.713,0 -1.872,-0.267 -2.853,-1.338 -0.981,-1.071 -3.745,-3.658 -3.745,-8.923 0,-5.264 3.834,-10.35 4.369,-11.064 0.535,-0.714 7.544,-11.518 18.277,-16.151 2.553,-1.102 4.546,-1.76 6.1,-2.253 2.563,-0.814 4.896,-0.699 6.739,-0.424 2.055,0.307 6.33,2.588 7.222,5.087 0.892,2.498 0.892,4.639 0.624,5.085 -0.268,0.446 -0.981,0.714 -2.051,1.25 z m -19.522,-26.647 h -0.015 c -6.386,0.002 -12.649,1.717 -18.114,4.959 l -1.3,0.772 -13.47,-3.533 3.596,13.129 -0.847,1.346 c -3.562,5.665 -5.444,12.212 -5.441,18.935 0.008,19.617 15.974,35.577 35.605,35.577 9.506,-0.004 18.443,-3.71 25.162,-10.434 6.719,-6.726 10.417,-15.665 10.415,-25.172 -0.009,-19.619 -15.975,-35.579 -35.591,-35.579 z m 30.29,65.86 c -8.084,8.092 -18.836,12.55 -30.29,12.555 -23.603,0 -42.812,-19.202 -42.821,-42.805 -0.003,-7.544 1.969,-14.908 5.716,-21.4 l -6.075,-22.182 22.699,5.953 c 6.255,-3.411 13.297,-5.208 20.463,-5.211 h 0.018 c 0.002,0 -10e-4,0 0,0 23.599,0 42.81,19.204 42.82,42.806 0.004,11.438 -4.445,22.194 -12.53,30.284"
       style="fill:#ffffff;fill-opacity:1;fill-rule:evenodd;stroke:none;stroke-width:0.1"
       id="path64" />
  </g>
</svg>
